<mxfile host="Electron" agent="Mozilla/5.0 (Windows NT 10.0; Win64; x64) AppleWebKit/537.36 (KHTML, like Gecko) draw.io/24.7.8 Chrome/128.0.6613.36 Electron/32.0.1 Safari/537.36" version="24.7.8">
  <diagram id="C5RBs43oDa-KdzZeNtuy" name="Page-1">
    <mxGraphModel dx="1436" dy="1007" grid="1" gridSize="10" guides="1" tooltips="1" connect="1" arrows="1" fold="1" page="0" pageScale="1" pageWidth="827" pageHeight="1169" math="0" shadow="0">
      <root>
        <mxCell id="WIyWlLk6GJQsqaUBKTNV-0" />
        <mxCell id="WIyWlLk6GJQsqaUBKTNV-1" parent="WIyWlLk6GJQsqaUBKTNV-0" />
        <mxCell id="lmCzQLzH1KDjX3TPNwSO-7" value="" style="shape=stencil(fZbdcgIhDIWfZm8zQAg/17Z9j85U606tdqz9e/tmZ0c0uJ47xP0I5JwEBl59bp8/1kNwn6fj4W39M76ctgM/DCGM++36OJ50NPDjwKvN4bh+PR6+9i/z74/n6ctp9H74nlb4nbmSKZeJCu5vngmZ6jzzNAO7cX8FVKEsBuBKrgKg9oAE8gkCbLeUhEoEQKSUDZDLeWYRKIl8MEDRmHwfyBrBG6Amyu4+kDxxMoB3jhwgYu7TVAsVkFcWCs4CTBEoF4RctKeOxHIf8IXYpikHikAIf+MNUW94AGSSaoAoFIE3AlOyeWU+p2E5S9yfQZcQILVuQOwZdJNoS9Ls3wA5u2XZTIHECqeJ9kDpSaauRiNVcAY1QhdBzeLBli5WazpkSsBLV25uRaqWRyFawTQzRRIQYirJzq5atkBqLfouwqUxLBepthWb10vrWZY6UOAeyKCCtDV625mm9gmUC4Wc3VLJMMIE1BsA2FW9JraVlQB7n3c9oMKhCLEvIM1zBPZ25/umNQ1tVEC2G+fFCC8g398O2hNQuQlVu752DBfA+q0ptnqO5JFmeuIuo9DY7KjY71UxdJV4EntifPWorW++R/dC4t7V3DlIB5cHx2bc7eb3yvX//QNFp+bHDT/+Aw==);lineShape=1;strokeColor=default;" vertex="1" parent="WIyWlLk6GJQsqaUBKTNV-1">
          <mxGeometry x="479.0679730495069" y="85.0753246655504" width="4.672539772115442" height="4.665236216357698" as="geometry" />
        </mxCell>
        <mxCell id="lmCzQLzH1KDjX3TPNwSO-9" value="" style="shape=stencil(lVrJctw2EP2auaKwA312nP9wleVoKorkkpXt79PIBNTgNfkY3eRxN8leX2+X9OnH45fvD5fof7y9vvz68Of169vjJf10ifH6/Pjwen3Tvy7p8yV9+vby+vDL68vvz19v//7+ZVCOv357+WM84a8bn7jQB1P0f99+CNXF+u8vP9/on67PC/1//7vRd5capc8LfQzzlwP6ICt9dp0+P5SVXlxKlD4u9Kk4Hym9X+hzcCkwer/qM3cXCX13sn5PKS4Tebsrq7w1ukKe31xf7VXFZX9MX520hb4VV4k+i5Ow0PcwLbJLr9Zcv79vT9ilT06AXlztjD6khV6ia0Te6Orqn5Knxg7o/aofaS6R52eXBekz8bfmqkf6RvQfwhTvjoEpVOO7rB4n3XnCoCIny0BMMHw6IEMgMqfqfDUMzIkSeulgIFFTooveMBAZijixDELipu3JQAzX4sxr92plDM3FNbUMSxO1du9qQYZOfLVHDE5lqMQOGrvNMGSS3XufyfOOIRK1imbbjAzMDqKuYbQUiNBSXDdvoIhQjWskmoKHTiBHiuucoa5JQxVNQa2hDGr7SNxbDCy07BpTa3Nl/aTa50ceMXgDVCxEVa1xzdyKhJE4nxoOUnFuEyyOXAO8NXuKtQod8EkpOc98ybsC1U6ZmeooHgD+g1C46ht6bAzZFfaGago8P93xKKYjVADUbj1P59+0ykU2uTu5RAB31BOrAJEDqKYYqCBpwamOXyrQs3yh9ROYLFL4rFpPgAGolyry5IL0DKkSJu04kWgfO43LqbyMXvXjUZ/EvhpTgvpkBXPq1r6JFXgF9RlpEKfsIspbiLwpzqzzTt/Y8/0Mjzt/Jv6p4QQApQZk9AXtmyna6OP8Km+hkKzuBeikLySJfSQo6ChofIWOHVqdSXKfvsx+8j3/sJwb0iwg3ukziS8tmKFD0wKbQSWiDO932wTqrThwlXhbdXV9un4eK5Ur1rEhTug/aM8aJJ9M8aVgc6DtAvMe9S0zDmDjA6Vf1RP91MARPSSfRNstS19mQ3VED8mhUTQy8DsabOo9KC9vhdT8OSMDq4LU/XFg0qmGxnznowzdfFJiGcLEgDJUFvINe9gRdazp1RyakaEwtSrDKrSmbYaSygDdmTIUYuhgCuSkiYYLHSoyULVWbOeUoXAGmF0pQ2WjgTJLyTsGhq3KEAIysGJiZJ+Oam1MSxnnIcoQmaXzFPHONVijYj/pfSZ6KDTkgD4bi0O1dmSgEFVRrbHTGmq4RjUMJ87XkIGisnFvZaBlQjNlmrjEhDYhqgwstQ4G6M54Z2PTjDIIy3wNJ1/q3mxaMVJlQgaq1ooznRGizL0/zKD4kM0nMbWGHaFZhyl7L6Alj5g0llkDYjJxmG350QQYctJJ5sZ+dOwsKD3GGi8ZwpxX/8+SxNIn7nTmezwtOQPCSOCj0ID1vuYzNnaMWF+HRBvYaEpO3sAm7M+EgpoBkEYRylRHhaJHR8TMtJkIHkfjmTa7qgowbqa+r2DWwfln93iY1qEIobGorlWwOWYZVB8H+om0sFP1Ay4FGosD5lbn8XSyqqkgeaBn7VCK2Ex72g7ZYYOf05PDYUZDejb86KgfTwf0YxiTkZ4NbzIOnzwPrm6/P58MqwLQszqlmP6JV3922OYnGhwO8/D5nnX3Gcsgz3c2HYdnng4zesB4UXqWftKO//CFDeSfSPNDr5hsM99OV7NupqVxbwguwofHMtV3N89gW7YxkV8NHIR2uxKxLTuBa0nocpo0WIyJmYFolNKVVp0DyI2hne1eYMRYytzG7DN0Y7bId2Ayw3xj6FxLglPMsXBiWhIsy7rnPZD36Bu90FOH8QpYFfJoVoYGy/zM90Fby7Mx1NnlHBkiQTwIN4TdXgp/g92PCr0X2NnACh1Yd4PJQ2+MoZgkIHSwMfbUggx07eznB9wzEMM1O8blA6YWzVJY6Mxr3As0oyW+F7Jv6Owyx948CJ0V71xVCEWHnbsNocdaO5chwutHe3uyIfZRf1zsG1g3ZNqnkwBqZuLtOaZnnMKJ0P4pYEkyXI9YwRtX7fTKw6RJzUmsxvOIDZr06JgFEXes0Wn/BylPQZ4t0Ez/1wudT2Ts6DQbMK8uqM9WqLx13vdtUCh0Yl+xXlCszayGxAvKwhd6bXaUW7XALxAb6v/kwrEhHpxcUDY8+Tm50Gx4f3ByAdrMfpdfmDazQjvb6MHE7eRC1sir9LRHwHuFUCi+NjMvKRRpzDGR0mea4LqhZ3uJjuPwwI+VOtZEp/TQEp1+TzP0TN6OLfKJPs1C+MRe5kL5xB8+fpF9Rq9/vJ9/f7s+Pd2ux+//H8/F9afbqXn6/A8=);lineShape=1;strokeColor=default;" vertex="1" parent="WIyWlLk6GJQsqaUBKTNV-1">
          <mxGeometry x="-173.82806868729352" y="30.38704576994803" width="153.43307542621318" height="157.56911175320658" as="geometry" />
        </mxCell>
        <mxCell id="lmCzQLzH1KDjX3TPNwSO-10" value="" style="shape=stencil(7VjNUpsxDHyaXDW2ZMv2mbbvwQyhZEoJE+jf21du6hDry7cMB27cAtFGlrRayd7I1dPd9eN2w+Hp+bD/tv21u3m+28inDfPu4W572D3bp4183sjV7f6w/XrY/3i4Of79eN0t+6fv+5/9F34fcYlK7CAOf47/CBTCv398OZrf7x7OzGMgFWfPDdgrSZjsI4W0bm9flzbZM4mu20sknX8/U8vAvhGX+TwWEQCkTHVOUGxUQYZSpcwTQBKlCgFh9pCEEjqSUpxrkJkaOpIQz0lSJmaYpf9JHIBiWQJlE6U8p7XUcci1uskcdK2j8peJUYjTBGhWaeCBlcpch1ZIEPWyp16zUoLCWe9onQGNEiArn+p6BkBsNfJHz1bcn9aOTbwLBaU2Npfqo64gr7EO+p/lVUGaDBBc5ZQYeSiUdQakQa81gDgAQzIZILmgI5a9QnXmRm1D2NaCzg5QML+FZOZG5eHzMuBEzlPLFWogS2L8ngtXePTUmmy0OQZVqJVZKDudiZRBpVXG8DgpmWUJAPqJ56BzpgDIV8PCg0A1rjawnAeG5OsyNOtMjlCNrV04eg8Reaie3hYDYmtbDLmcSIAIGKAmn1bEpTMZOq8coKu5KM5FGy2yBgiOfZEiqJylKc55tSknyINScwChiPKaSRcANEdNt1xT25EKmBDNfk990AW0nAldcoAwJusaIDi64inXAa7SOkq5eiQHSENI1oJ2U64LCYoh+V0gMxy8Vjin971HUQzqp6J5COhIdZElJkVN3fzWZ0GjudvnuFOyjOndvHxbi8IGMhVwdWg46DYWqjPyKTpSXbCV4XWgr2zsAQ11nPplo7coaqC3AmxANPWABApXo59ZBkBSWYwIzkOmCI5kXycnlWVI2+VBrWPKnq0CEQDsjsJzHfqyATouBc+lmmClJfkbRLMR87Hfv89+D9L0sd+/y35vdYjzkUxIMqq0+CFnu2zEFwIH6Jd2UDi7g0cnG9aj6AYhnnwmJGiHE6v0fKRkeo+eZ4rfEvtDAchSl415jPa8ASWzLOniPeeVjgsz+aLJLeq44He4KLBwiyUx8nhzuhzz4gmLR0NdjmBxnghVKfobkNkjJQ5+MWlwkQl+lFQ4PhcXDYULQPBilEc0K+Yu9wIv3WHc7F5eJzPMpLrKUkITyt/ow+DqCg+UnXkEmXnjS++r5vbh5VH5dnd/f3yTPv/eP0Lbv44P2PL5Lw==);lineShape=1;strokeColor=default;" vertex="1" parent="WIyWlLk6GJQsqaUBKTNV-1">
          <mxGeometry x="62.201515994710235" y="-17.40401630408735" width="48.56031453176388" height="34.41932847041301" as="geometry" />
        </mxCell>
        <mxCell id="lmCzQLzH1KDjX3TPNwSO-11" value="" style="shape=stencil(lVZBctswDHyNrjskQBLEOU3/kZk4taeunXHcNvl9qapyRVhCpzeZxkrYBbDgwA9v+6fX3UDh7Xo5f939PDxf9wN/GogOp/3ucri2p4EfB354OV92Xy7n76fn6ffr0xg5Pn07/xjf8D7hakGREUXh488JSv198HmKPx5Oi3glBO7iSaDFAWTU0AESgdI2IIaA0CNKBDuI9onYc5CC5JAQRtIOoAzO24AiNiUt4LgNyDIncANUZN4GpAxNPUAhsg1gRlYLUNoGUIREm5JXuRiRsyWtjqzJlkHbiW7Hh1nzW3xAdeNN1WpT2WGckE1rt3y8ziNLoEak4EhKtsqibuNxQuqrLHUu4zqFAqkWUB3OuYKo5xBc0q21TZUruaq24al9H9WM5MxCG0buLaPW+RXrgIRa+sZoluF0alFkMzwZ7MhaArRPScVtvaQr4+lWWuy0LXxtvZnybBDLTziAmKx1NxLilXoWcaGSN58RFGwZgtMZd77d6pwdCyO7GVojRUdTguhdvJM/Kbgn3BaJeBbZLLefhcRua7fdR2Yb6txZ65KK5RCDa/MNoEYkJOcD90UoiM7oEM+WfqOM4Gta+vfTLPL6HBQ7mhHB2bQpgft8AsiJz4SiJt6bsnHyi4n3FnmpEDb5R6deki1fcvd+c2dVo7+XT1thZiEU1yT+93737/j28Pcy+XI4Hqe76PJ/e/lsR9PFlR9/AQ==);lineShape=1;strokeColor=default;" vertex="1" parent="WIyWlLk6GJQsqaUBKTNV-1">
          <mxGeometry x="130.75393437367143" y="-16.552830989462677" width="6.2153121529640885" height="22.13949128364743" as="geometry" />
        </mxCell>
        <mxCell id="lmCzQLzH1KDjX3TPNwSO-12" value="" style="shape=stencil(7VhJbhtBDHyNrgTZ7PXsOP8wYDkSoliG7Gy/DydCy9McTTm+BAiQmzzumuZSxWU2evO8u3vabgI/v5yOn7ff9/cvu41+2ISwf9xtT/sX+7XR243ePBxP20+n49fH+/PfT3fTyenXl+O36Q0/zrgciXVCBf55fsJUy+8HH8/nD/vH2fkSiGU4Hyk0cL5SG883+P6aKMThfBASAYBIOQ8AFcoJWiTjDZFp+nMVwJTCCCjEwOes3eIOSAqDlJmER0AmzuuAZD6UEVAoMAAkasEDWgUApVhHQCWNAMDUmgcEkOlYKbM3qSBApqg+ShX4EI0aDpD6k+sAJXUmRUi+GCi5TAeKIA8G8DcwZXxDGQEWt4p9yCM1jK2CopRIRgHZk4IynYjTCDCyAEC2TI/UiEIVAEyiKXlAA5puTOokmkmA4lqhPBYByzQSkDATj4mYZI6uyKSjgopC9lnpczZVpYpqa+mKvABqV+31RBhg5EYLPZdrdUZHBbVIFdG1dIsvgNJr21WAFkruhgrJJOwlN0vN9TBRcB2o9ZZx3QcKC4sSiKosXM6wxbEvYxbTAmK6IJ4lTUG/4t7+Lqxo1IC/i5JUC7TfGODOZwogPva2sb4Y0VEnEem6mgEEOCCRonhAAbSWBSXMZdRvpXUPZ0pDBWlKsiOd9DtXAeMNTWFjMJM8IPVRa81pN8a0S2bWwloXwgkorDZ4BQ9oINO1T0Wz88ii5KceO89ACaHrduZxApWCFw4nisAe7rfPciZQmerez1RAR5CFkmvP4fVi6iuRKRN18rxQcqIElG+1l4sHCHLgvQDVPtzMemADLsdGxVUXG0RBjqeFZwxSMd2gjUe7xRcAw1FhuWBkIyKgkb3PmWSTsKC8/d8X/nBfiD5Kb+0LDvBX9gUM+Pf3Belpmi3caEM3IrSRSxoh+XL23dZai6IikP1GMtV+dEOgOpZi645oKDTmuI1kGmuQRLWPLK9zLQUEWHCpQe5NaRiZYfJBHojfLmyhQVkTii7NsBCb/eyy3B1aC5CrwwHWC5NiGnkqcHqx4uCmEcb2VD9EcndorWiH4M8jjoZeoV/PI3/f+yXv7fP24/Wz4cP+cDh/dZz/339mtEfnT5R6+ws=);lineShape=1;strokeColor=default;" vertex="1" parent="WIyWlLk6GJQsqaUBKTNV-1">
          <mxGeometry x="170.07267721103335" y="-34.22248435106155" width="26.69054401367339" height="36.952276147469775" as="geometry" />
        </mxCell>
        <mxCell id="lmCzQLzH1KDjX3TPNwSO-13" value="" style="shape=stencil(lVfZbttADPwavRJL7snnNP2PAHFqoa4dOE6Pvy9VQa6XkifIm7IZ7vIYDukhPrztn153g4S3y/n0ffdrfL7sh/hlEBmP+915vNjXEB+H+PByOu++nU/vx+f579enCTl9/Tj9nG74PdupUuXJSsKf+aRQCv8Ovs74w3i8xWeq0uG5UNT7Bq1QiZ2BKKV836BGiq0zSIkk3TfIShw6g9yWKzYNkr1QO4MqFEDQMVApnUETaiBoCSS5M1CmDFxiJtbeoC15264Dpd4jK2QG+EoperxWkFSKYYUH98cNPKIFU8k+3iT38YFyT1OtxBAfnD+ZCsRzTzpNFFDBKPRtoLJwZJsRC+dvCcGAo6t8Bqrg/mvX3uATqG+jvMIXFK9dxz6ACB4wRiv7DCGP2FrKpSguJ9sGkdhxOmPOidcuLaSg7y2G0guFsRRJkWUpOBopCSwDi8c3UIbiac0hYOkiTf4B1AdCvOrLCnIaqLkAKhQ681Z9CRjoiuGd/+mD+33FjCWgz4ylzn+mBvrs03gmcaMDC9H0Ql+BahkFbRATpT6lpVAFlEimzL1L2dQb1KCYtPUvRIUDtq5csnmC1NrGqTheY5faNcSrS1juqh/5AiNozS8hTAk0flPPu7DsVdvj2+a9xwtIkGlnbQ6P2t66JInHg/yYcqo6PBrH1uVu3vDSqNt4mzfF4ZHOmUq5cSNQqaftpPcnQX9uZPPaBCRo3/rsnvwh3j7+L+Uv4+Ew7/S3//dLvB3NPwDi418=);lineShape=1;strokeColor=default;" vertex="1" parent="WIyWlLk6GJQsqaUBKTNV-1">
          <mxGeometry x="200.8591702321503" y="-28.85850260537336" width="24.39960672918278" height="33.6073773317238" as="geometry" />
        </mxCell>
        <mxCell id="lmCzQLzH1KDjX3TPNwSO-14" value="" style="shape=stencil(7VjLbhsxDPwaXwlRoh48p+l/BIhTG3XjwHFff19uDSUrrneCAO0tN8fRWHwMRyNt0s3z7u5pu4nh+Xw6ft3+3N+fd5v0aRPj/nG3Pe3P9mmTbjfp5uF42n45Hb8/3l/+frqbVk6fvh1/TL/w64LjQqFMqBh+X74Riu3vF58v6w/7x3G9yLCeI1UGgEytDYAYKBUAsADSCKgUKgAwtTAAUiQFOzQK43rht1JIOm6gJLoOiJZzHQGt/8RVQKqkDlAo5nWAqC9SSqSyDsiN1BWJqaR1QClUx5CiUo7rgCqUXKONK6ANlRc7GBlBSAbIeQQIKQrJUhzJGhNV0IcaKcQRYOxGO0QqLgfLCiWdFjmE3vu1spboAYhL1cjHHoDmp9p4LUIKYB5qo1g9IKIq2bgEDyggh2YpLsqKkm5M7EQjQh1rL+yfUSOBpA3gdMwmroCJa0aNsaySqIEqNSEeq5QLlQAANqJjDkWpoqTVh2RZZQDQSHk8HRSzVU0qx4nTAvtgO8QxaRVqQPkMoCO91coK+qAvwjgDMCir5cBjp21PxFZLUXQBQDlUqtmHhCZOW2fODICOLDWtVl/WgvqgpC7pDNk6AVxZaxfPNYC4HRoxalyj4sinUMgsgCweAKtk3Bx34BC6ObiOsAMn+y0UAaxPi5gEHHJGnVp8mdBBbQBm3wg41KZkbgcjMCqTnYouh9ztxxrAiavVjdFA2Kk46r1iNbbf8xMUofTpwudOQSK6VkqLHaAwNcrB5yCI3+oNk2WVUFnVezjrA+LSjM2zVsOstavEjEywru8FtLZQV7Om6GjPix0itFjTwTsOREtQaMye8MhvM46MLZab0VzhjJrrc8eiSHdpa85VRvYl6Xz8MNP/1kwLkO8PM/1/zLSZOAcoMAerknOuCbu+8iIqsxt1A50uwRsgu7MX0OnM3jwIQ2pI6AM5EwHkmGL1J4pU+CowPeaMbBWFV/Dihc/WV1CkxXEihRLIIHgimYohYZVrmoSa5uNnhT0r3jVwgrNWFh2Dql28E0tQ78x1ubmEwVd/PeR+/VtZriM9wxuPYm5e8CsDh27oXtcH9KrH/dFvth50lqOnQugXxevrkxeIAK9gLN4kMPRe0xugoyaOJ3ez+MoFuP7977BvrLcPr4++D/vD4fJmPP+/fyS2ry4PzOn2Dw==);lineShape=1;strokeColor=default;" vertex="1" parent="WIyWlLk6GJQsqaUBKTNV-1">
          <mxGeometry x="252.54884544024617" y="-42.11040302232652" width="42.099801857299326" height="46.42579345933996" as="geometry" />
        </mxCell>
        <mxCell id="lmCzQLzH1KDjX3TPNwSO-15" value="" style="shape=stencil(lVvZchw3DPwavbLAm3h2nP9wleVYFcdyycr19wGj4uywueyx31arxgwJ4mgA3If47vvnD98eH4J8f315/v3x76ePr58f4i8PITx9/fz48vRqnx7i+4f47tPzy+NvL89/fv349ve3Dx3ZP/3x/Fd/wj9vcuKqdqEg/759EZKr/v9vfn3Df3n6esJ718KMLy6HPT645me8uqx7fHS1TfgYXcl7vK02zvg2dnQXn12RCZ8SfX5xacZnca3u8dVJnvHVpcbwedZnMQ0Uhm/zfou6QvTfnMzrr3loeIP383k17zJZj+HLjC9jhTv8fL7qXRSGD/N+NblA95vn9WtxhdiDWeOsH7UTZPYvThUFPFGojy6mRSARgTIO9Ae30H14PgPlZ9ydYFFqJgLROw9aisPO7wuYEpdjZm6Qogt1FhAnxM/ScnDNHJ+oNWcX5ze06go56WKOPruymTbTUikuzJtumQpUj5tuiQav7ruKAsLeoBgeW6ThtwVXEgoE5p8J/cEeUYlpmNYlogB9g50raMmPs7/v0uIixCTzEBIzzDbBgUxvjai1W7+gAIsa5l8ya6laICRh0jxY5jhWq4tcABJDLTSx9Si0ZAa66XupJDK1trHiQyCM7LIVmD2uVOrTXWD2uGLmyAXSbN7FU/piApCfLZ9nptY2XP4QiGNXW4HZNFJzyszbBGa1GoW5OofZvKMOFrcTABIQL066ootaxqD+YMYMtNNoEqEZt6x84qkstvacOW/aqKhnbyiYHyyvUmvNTuc3WOauJGWZAHATn0YC2AYBeIPRb7aHhPlBB/3exTGF0Dpy3n18cAoezf3TYwQo1I6aujCvP4+4eR9vXBN8h1KrdjjKYacusfX4EUIPmxgv3KVboD2BkuceogXwkZxXTRggzabZegJyz0CzTpXFB0aSuM942opndKQzJNwvI3kWzWXBE31aMK+Lfog9Z131H8j6e+yPgGfZo3NOxDN/tFQhEEedsOeLK4gP5PmWWQTtPxD7SRkJahwh7D4+YHqNlM9aHsrz8xP191iQkifKBKPF1wR4FqHj0t1II0DeL6QUC6k8XngfXzGeZJeIfdq/G+Ir8V9bbpgzTKH+buZYMT5ntn6PfOsg87vKFOy50njoG3Z/Go0n3kgD1BKuMHzBeKLU/i0/YzdhVDv38WGk5yNhC++mLYW1fcMsQpE32SsDiRAVK5u+RHJiBQ/Yx6HiTTstZMQzAp4wIHrOXSO2iwzfiMf7oe4Dn0eI2eCTLnjWnMES3/CR4v1C+agFoYF2EyTPF6cZ8SxjGH49X76einjaHsN2ndlbIfbjB/864SPzYGxPdDy1B3TIMDxo066G9q0/GiIbPBAazzN2QILreUYNSFj7+fL1VMSzcvXgRyd75ueL9pNpdesxoF/6Vy4LnvpvXNbPGL3HdrXhPcXLEq8qsTdZasJEGfqKj6Nu/cH1RFrV2n7BHgKt2FZ9BpqPPBI4zyuYn8VHLKi8p93FQ9snPPPfjH25nn9ZRTKy7QnPKoyjxXwiBOx8dXm+UH/v4who5dNmag9nWPFT/00jvJ4YHPOXjPO+QsdZxuCAQBSqT2OIC+Nm/WyvqJ88PGLHcMPskLxiCEu/PI2B4Y6h+wB4VmH3CmDWf6SEshtcADzjb7dp7KkiZHzML/PiwUC2FRj07Wj8sQpveT6bG/UKEitsOjayx4FDUvtMK8Hlc6yGfcrDoLYVPBAaOk3sHQJIAIMx7joQQFiFjgZv0+obnvHDvFTwQivg3qFJgGdN1rUDJJSfrB2mC/zSwRKqz7VDdoEPmFAv8Al79UL5ZO8gRsTzDqVHPLPP5sfk7IZnHZeWsCIX2jFty30JT+NV00FnTx0+3oGu2JFiHQWNg56e4jPRv1o5OuMzrUc0Y7wttB7RMujXLb/TaVJZCIenCckEdKnw6LC0LiVeoU0gE8AaW2nNbAIFcoCnpN4EgEXbKSsTaFiG2TEon0xio1VG6/i+gGKcjrzwNwHojPTUxix18YSUKPUzgTKHdktWjZ2D4lTvapSpOIO+Gpbq0PrhDRfjWEVr7QPfizeAv1VaQHiRZcwtV3qFV1Tek+tqgusGebCYnQCQqFoHrd2ZK2SpyhujWpdRvdK6w8IGFJYmwAK3ZkyEVbnLJWx1NqGtAwvd0Oxvnk5zLDdA2GiBT60FyWbjbLY1tO9+/Yalz4rlQUt0otOWEXG/QsTu9wUMrvaIwGaCSxQwAXbjsF8jgXMolONVj02uPtclbzCSB7bUKl1SkZEODoFG25JGm2GQZcSjXFxHgwtvQkd9KeIeNNDKNNbl5mSk99esVIOoYT7I4tJtuHQIFLqHzu3g4mGj1awvaHyqdEDVL09WFKD9q7WhJpxxKxb8ymc8ywi4sw9m3Ug1NNEKaYnE6umEpI7+2dl56AVl2G+/5EAvHEOH2PybcauFTxalFcByT8cyOjOJgh0+4xhsRpuR0GfPZ9hYMKRMCXQc2j7xNjqjxYaUEUN252bpuN8u4+46vnAFpdEKXlCfgd9yFZxo3WaGG7wkxLOKTZaLXpna80LXAr90K3gF4qJiW0bYvWdM1+9hv4kmM8FyyvCsYy3LlZ5EKbOMe3UnPOtwCzZ0Op7qE4u1RGf8P/uDk2u8fbj9uuXT05cvbz+OOf8ffw1jX739kia+/w8=);lineShape=1;strokeColor=default;" vertex="1" parent="WIyWlLk6GJQsqaUBKTNV-1">
          <mxGeometry x="39.74433003567151" y="-57.28148286990506" width="296.70256658684116" height="123.54615773706712" as="geometry" />
        </mxCell>
      </root>
    </mxGraphModel>
  </diagram>
</mxfile>
